<?xml version="1.0" encoding="utf-8"?>
<!-- Generator: Adobe Illustrator 25.4.2, SVG Export Plug-In . SVG Version: 6.00 Build 0)  -->
<svg version="1.1" id="Layer_1" xmlns="http://www.w3.org/2000/svg" xmlns:xlink="http://www.w3.org/1999/xlink" x="0px" y="0px"
	 viewBox="0 0 300 89" style="enable-background:new 0 0 300 89;" xml:space="preserve">
<style type="text/css">
	.st0{fill:#231F20;}
</style>
<g>
	<path class="st0" d="M11.6,46.1V14.8H19c6.3,0,11.6,2,11.6,7.6c0,4-2.8,5.9-4.6,6.7c3,0.7,7.2,3,7.2,8.1S29.1,46,20.6,46L11.6,46.1
		L11.6,46.1z M19.3,27.3c3.5,0,5.6-1.2,5.6-3.8s-2.1-3.9-5-3.9h-3.1v7.7H19.3z M21.5,41.3c4.1,0,6-1.9,6-4.6c0-2.9-2.3-4.8-6.2-4.8
		h-4.5v9.4C16.8,41.3,21.5,41.3,21.5,41.3z"/>
	<path class="st0" d="M60.3,14.8H66v20.8c0,1.7,0.1,2.8,0.4,3.5s0.8,1.2,1.4,1.6c0.7,0.4,1.5,0.6,2.4,0.6c1,0,1.9-0.2,2.6-0.7
		s1.2-1,1.5-1.7s0.4-2.1,0.4-4V14.8h5.7v19.3c0,3-0.2,5.1-0.5,6.2c-0.3,1.2-1,2.3-1.9,3.4c-0.9,1.1-2,1.9-3.3,2.4
		c-1.2,0.5-2.7,0.8-4.3,0.8c-2.2,0-4-0.5-5.6-1.5s-2.7-2.2-3.4-3.7s-1-4-1-7.5L60.3,14.8L60.3,14.8z"/>
	<path class="st0" d="M112,38.6c1.5,1.5,4.4,3.4,8,3.4c3.3,0,5.2-1.6,5.2-4.2c0-3.6-2.9-4.6-6-6.2c-4-2.1-8-4.2-8-9.1
		c0-5.5,5-8.4,10.1-8.4c4.7,0,7.8,2.8,8.5,3.5l-2.6,3.9c-1.6-1.6-3.6-2.7-5.9-2.7s-4.6,1-4.6,3.4c0,5.9,14.1,4.5,14.1,15.5
		c0,4.7-4.1,9.1-11.2,9.1c-4.5,0-8.8-2.6-10.5-4.4L112,38.6z"/>
	<path class="st0" d="M180.7,46.1l-2.9-6.1h-14.5l-2.8,6.1h-5.9l16-32.6l16,32.6H180.7z M171.2,25.5c-0.2-0.4-0.5-1.1-0.5-1.5
		c-0.1,0.4-0.4,1-0.6,1.5l-4.5,9.7h10.1L171.2,25.5z"/>
	<path class="st0" d="M219.1,46.1l-1.6-15.6c-0.1-0.7-0.1-1.2,0-1.7c-0.2,0.5-0.5,1-0.9,1.7l-10.2,16.8l-10.2-16.8
		c-0.4-0.7-0.7-1.2-0.9-1.7c0.1,0.5,0.1,1.1,0,1.7l-1.6,15.6H188l4.1-32.1l13.7,22.7c0.3,0.5,0.5,0.8,0.5,1.2l0,0
		c0-0.4,0.2-0.7,0.5-1.2L220.7,14l4.1,32.1H219.1z"/>
	<g>
		<path class="st0" d="M12.4,77.3V59.9h10.1v2.7h-7.1v4.1h5.8v2.7h-5.8v5.2h7.9v2.7C23.3,77.3,12.4,77.3,12.4,77.3z"/>
		<path class="st0" d="M33.6,66.3v11h-2.9V59.4l12.9,11.9V59.8h2.9v18.1L33.6,66.3z"/>
		<path class="st0" d="M64.5,70.7v-2.5h7.6c-0.1,6.8-4.2,9.6-8.5,9.6c-5.3,0-9.4-4-9.4-9.1s4.1-9.2,9.4-9.2c4.2,0,6.6,2.2,6.7,2.3
			L68.7,64c-0.1-0.2-2-1.9-5.2-1.9c-3.8,0-6.3,2.9-6.3,6.5c0,3.1,2.4,6.4,6.3,6.4c3,0,5.2-1.9,5.4-4.4L64.5,70.7L64.5,70.7z"/>
		<path class="st0" d="M79.3,77.3V59.9h2.9v17.4H79.3z"/>
		<path class="st0" d="M93.6,66.3v11h-2.9V59.4l12.9,11.9V59.8h2.9v18.1L93.6,66.3z"/>
		<path class="st0" d="M115.1,77.3V59.9h10.1v2.7h-7.1v4.1h5.8v2.7h-5.8v5.2h7.9v2.7C126,77.3,115.1,77.3,115.1,77.3z"/>
		<path class="st0" d="M133.4,77.3V59.9h10.1v2.7h-7.1v4.1h5.8v2.7h-5.8v5.2h7.9v2.7C144.3,77.3,133.4,77.3,133.4,77.3z"/>
		<path class="st0" d="M161,77.3l-5.9-6.5h-0.5v6.5h-2.9V59.9h3.7c3.2,0,7.4,0.8,7.4,5.4c0,2.4-1.9,4.7-4.6,5.2l6.9,6.9L161,77.3
			L161,77.3z M155.8,68.3c2.6,0,3.9-1.3,3.9-2.9c0-1.9-1.2-2.9-3.7-2.9h-1.4v5.7h1.2V68.3z"/>
		<path class="st0" d="M170.8,77.3V59.9h2.9v17.4H170.8z"/>
		<path class="st0" d="M185.2,66.3v11h-2.9V59.4l12.9,11.9V59.8h2.9v18.1L185.2,66.3z"/>
		<path class="st0" d="M216.1,70.7v-2.5h7.6c-0.1,6.8-4.2,9.6-8.5,9.6c-5.3,0-9.4-4-9.4-9.1s4.1-9.2,9.4-9.2c4.2,0,6.6,2.2,6.7,2.3
			l-1.5,2.2c-0.1-0.2-2-1.9-5.2-1.9c-3.8,0-6.3,2.9-6.3,6.5c0,3.1,2.4,6.4,6.3,6.4c3,0,5.2-1.9,5.4-4.4h-4.5V70.7z"/>
	</g>
	<path class="st0" d="M41.2,38.1c0.8,0,1.5,0.2,2.2,0.5V14.8h-5.3v24.3C39,38.5,40,38.1,41.2,38.1z"/>
	<path class="st0" d="M43.9,41.3c-0.7-0.7-1.6-1.2-2.7-1.2c-2,0-3.6,1.6-3.6,3.6s1.6,3.6,3.6,3.6c1.1,0,2-0.5,2.7-1.2h12.6v-4.8
		C56.5,41.3,43.9,41.3,43.9,41.3z M41.2,44.7c-0.6,0-1.1-0.5-1.1-1.1s0.5-1.1,1.1-1.1s1.1,0.5,1.1,1.1
		C42.2,44.3,41.8,44.7,41.2,44.7z"/>
	<path class="st0" d="M234.1,26.8c-2-0.5-3.9,0.8-4.4,2.7c-0.2,1.1,0,2.1,0.6,2.9l-2.2,9.6l4.7,1.1l2.2-9.6c0.9-0.5,1.6-1.3,1.8-2.4
		C237.3,29.2,236.1,27.2,234.1,26.8z M234.3,30.6c-0.1,0.6-0.7,0.9-1.3,0.8s-0.9-0.7-0.8-1.3c0.1-0.6,0.7-0.9,1.3-0.8
		S234.5,30,234.3,30.6z"/>
	<path class="st0" d="M92.6,27.1c-0.7-0.8-1.6-1.2-2.7-1.2c-2,0-3.6,1.6-3.6,3.6s1.6,3.6,3.6,3.6c1.1,0,2.1-0.5,2.7-1.2h10.1v-4.8
		C102.7,27.1,92.6,27.1,92.6,27.1z M89.9,30.5c-0.6,0-1.1-0.5-1.1-1.1s0.5-1.1,1.1-1.1s1.1,0.5,1.1,1.1C91,30.1,90.5,30.5,89.9,30.5
		z"/>
	<path class="st0" d="M145.1,13.6c-2,0-3.6,1.6-3.6,3.6c0,1.1,0.5,2,1.2,2.7v26.2h4.8V19.9c0.7-0.7,1.2-1.6,1.2-2.7
		C148.8,15.2,147.1,13.6,145.1,13.6z M145.1,18.3c-0.6,0-1.1-0.5-1.1-1.1s0.5-1.1,1.1-1.1s1.1,0.5,1.1,1.1S145.7,18.3,145.1,18.3z"
		/>
	<circle class="st0" cx="271.7" cy="39.6" r="2.7"/>
	<path class="st0" d="M287.6,77.4H256c-0.5,0-0.8-0.4-0.8-0.8l0,0c0-0.5,0.4-0.8,0.8-0.8h31.6c0.5,0,0.8,0.4,0.8,0.8l0,0
		C288.4,77.1,288.1,77.4,287.6,77.4z"/>
	<path class="st0" d="M284.8,74.1h-26.1c-0.5,0-0.8-0.4-0.8-0.8l0,0c0-0.5,0.4-0.8,0.8-0.8h26.1c0.5,0,0.8,0.4,0.8,0.8l0,0
		C285.7,73.7,285.3,74.1,284.8,74.1z"/>
	<path class="st0" d="M89.9,23.9c0.8,0,1.5,0.2,2.2,0.4v-4.7h13.2v-4.8H87.8v9.5C88.5,24.1,89.2,23.9,89.9,23.9z"/>
	<path class="st0" d="M92.4,41.3v-6.8c-0.7,0.4-1.6,0.6-2.5,0.6c-0.7,0-1.5-0.2-2.1-0.4V46h18.7v-4.8L92.4,41.3L92.4,41.3z"/>
	<g>
		<path class="st0" d="M139.6,17.2c0-0.9,0.2-1.7,0.5-2.4h-6.9v4.8h6.9C139.8,18.9,139.6,18.1,139.6,17.2z"/>
		<path class="st0" d="M150.1,14.8c0.3,0.7,0.5,1.5,0.5,2.4c0,0.9-0.2,1.7-0.6,2.4h6.9v-4.8H150.1z"/>
	</g>
	<path class="st0" d="M280.7,70.7L276,43.6c1.9-2,2.1-5.1,0.5-7.4c-1.6-2.2-4.4-3-6.8-2.2l-10.1-5.4l0.9-1.5l-2.1-1.3l-0.2,0.3
		l-3-5.4l-3.1-0.1c0.1,0.2,0.1,0.5,0.2,0.7c0.1,0.4,0.1,0.7,0.1,1.1l1.5,0.4l1.3,3.3l-2.5,4.2l-3.8,0.9l-4.3-4.6L244,27l3.6,6.5
		l6.2,0.1l-0.2,0.3l2.1,1.3l0.7-1.2l9.4,6c0.1,1.1,0.4,2.1,1.1,3c0.2,0.2,0.4,0.5,0.6,0.7l-4.6,27H280.7z M269.2,36.1
		c1.9-1.4,4.6-0.9,6,1s0.9,4.6-1,6s-4.6,0.9-6-1C266.9,40.1,267.3,37.5,269.2,36.1z"/>
	<path class="st0" d="M252.4,22.5c0-0.4-0.1-0.8-0.1-1.1c0-0.2-0.1-0.5-0.2-0.7c0-0.1-0.1-0.2-0.1-0.3c-0.3-0.8-0.7-1.6-1.2-2.3
		c-0.7-1-1.7-1.8-2.8-2.5c-0.2-0.1-0.3-0.2-0.5-0.3c-1.7-1-3.7-1.7-6-2.2l-6.6-1.5l-3,13.4c0.8-0.2,1.8-0.3,2.7,0
		c1,0.2,1.8,0.7,2.5,1.3l2-8.8l2.9,0.7c2.9,0.7,4.5,2.2,4.9,4.2c0,0.2,0,0.3,0.1,0.5c0,0.5,0,1.1-0.2,1.7c-0.2,0.8-0.5,1.5-0.9,2.1
		l3.4,3.6l1.1-0.3c0.8-1.2,1.4-2.6,1.8-4.2C252.4,24.6,252.5,23.5,252.4,22.5z"/>
	<path class="st0" d="M238.7,28.5h-0.2c0.3,1,0.4,2,0.2,3.1c-0.1,0.6-0.4,1.2-0.7,1.7c3.3,0.7,6,0.6,8.2-0.2l-2.6-4.7
		C242.3,28.9,240.6,29,238.7,28.5z"/>
</g>
</svg>
