<?xml version="1.0" encoding="UTF-8"?>
<!-- Generator: Adobe Illustrator 26.0.1, SVG Export Plug-In . SVG Version: 6.00 Build 0)  -->
<svg version="1.1" id="Layer_1" xmlns="http://www.w3.org/2000/svg" xmlns:xlink="http://www.w3.org/1999/xlink" x="0px" y="0px" viewBox="0 0 300 100" style="enable-background:new 0 0 300 100;" xml:space="preserve">
<style type="text/css">
	.st0{fill:#F47E55;}
	.st1{clip-path:url(#SVGID_00000096049603605574815870000017192086783984848309_);}
	.st2{fill:#F3F4F4;}
	.st3{fill:url(#SVGID_00000096057373615327815430000007282873920323994506_);}
	.st4{fill:#00AEEF;}
	.st5{fill:#EC7D55;}
	.st6{fill:#22428F;}
	.st7{fill:#FFFFFF;}
	.st8{fill:#21438D;}
	.st9{fill:none;stroke:#00AEEF;stroke-width:3;stroke-miterlimit:10;}
	.st10{fill:none;stroke:#FFFFFF;stroke-width:1.5;stroke-miterlimit:10;}
	.st11{fill:none;stroke:#22428F;stroke-width:2.6592;stroke-miterlimit:10;}
	.st12{fill:#FFFFFF;stroke:#00AEEF;stroke-width:2.6592;stroke-miterlimit:10;}
	.st13{fill:none;stroke:#00AEEF;stroke-width:2.0129;stroke-miterlimit:10;}
	.st14{fill:none;stroke:#00AEEF;stroke-width:2.6592;stroke-miterlimit:10;}
	.st15{fill:#25408F;}
	.st16{clip-path:url(#SVGID_00000047772482644338797780000015254816711998490797_);}
	.st17{fill:#E6E7E8;}
	.st18{fill:none;stroke:#E6E7E8;stroke-width:2;stroke-linecap:round;stroke-linejoin:round;stroke-miterlimit:10;}
	.st19{fill:none;stroke:#E6E7E8;stroke-linecap:round;stroke-linejoin:round;stroke-miterlimit:10;}
	.st20{clip-path:url(#SVGID_00000050637834596411388980000013745458762547041934_);}
	.st21{clip-path:url(#SVGID_00000170987271907729513580000012739376261796114060_);}
	.st22{clip-path:url(#SVGID_00000047769617670612544210000013692952786581886091_);}
	.st23{fill:#FFFFFF;stroke:#00AEEF;stroke-width:3;stroke-miterlimit:10;}
	.st24{fill:#231F20;stroke:#FFFFFF;stroke-width:0.3674;stroke-miterlimit:10;}
	.st25{fill:#00AFF0;}
</style>
<g>
	<path class="st15" d="M11.6,51.3V20H19c6.3,0,11.6,2,11.6,7.6c0,4-2.8,5.9-4.6,6.7c3,0.7,7.2,3,7.2,8.1s-4.1,8.8-12.6,8.8   L11.6,51.3L11.6,51.3z M19.3,32.5c3.5,0,5.6-1.2,5.6-3.8s-2.1-3.9-5-3.9h-3.1v7.7H19.3z M21.5,46.5c4.1,0,6-1.9,6-4.6   c0-2.9-2.3-4.8-6.2-4.8h-4.5v9.4L21.5,46.5z"/>
	<path class="st15" d="M60.3,20H66v20.8c0,1.7,0.1,2.8,0.4,3.5s0.8,1.2,1.4,1.6c0.7,0.4,1.5,0.6,2.4,0.6c1,0,1.9-0.2,2.6-0.7   s1.2-1,1.5-1.7s0.4-2.1,0.4-4V20h5.7v19.3c0,3-0.2,5.1-0.5,6.2c-0.3,1.2-1,2.3-1.9,3.4c-0.9,1.1-2,1.9-3.3,2.4   c-1.2,0.5-2.7,0.8-4.3,0.8c-2.2,0-4-0.5-5.6-1.5c-1.6-1-2.7-2.2-3.4-3.7s-1-4-1-7.5L60.3,20L60.3,20z"/>
	<path class="st15" d="M112,43.8c1.5,1.5,4.4,3.4,8,3.4c3.3,0,5.2-1.6,5.2-4.2c0-3.6-2.9-4.6-6-6.2c-4-2.1-8-4.2-8-9.1   c0-5.5,5-8.4,10.1-8.4c4.7,0,7.8,2.8,8.5,3.5l-2.6,3.9c-1.6-1.6-3.6-2.7-5.9-2.7s-4.6,1-4.6,3.4c0,5.9,14.1,4.5,14.1,15.5   c0,4.7-4.1,9.1-11.2,9.1c-4.5,0-8.8-2.6-10.5-4.4L112,43.8z"/>
	<path class="st15" d="M180.7,51.3l-2.9-6.1h-14.5l-2.8,6.1h-5.9l16-32.6l16,32.6H180.7z M171.2,30.8c-0.2-0.4-0.5-1.1-0.5-1.5   c-0.1,0.4-0.4,1-0.6,1.5l-4.5,9.7h10.1L171.2,30.8z"/>
	<path class="st15" d="M219.1,51.3l-1.6-15.6c-0.1-0.7-0.1-1.2,0-1.7c-0.2,0.5-0.5,1-0.9,1.7l-10.2,16.8l-10.2-16.8   c-0.4-0.7-0.7-1.2-0.9-1.7c0.1,0.5,0.1,1.1,0,1.7l-1.6,15.6H188l4.1-32.1L205.8,42c0.3,0.5,0.5,0.8,0.5,1.2l0,0   c0-0.4,0.2-0.7,0.5-1.2l13.9-22.7l4.1,32.1H219.1z"/>
	<g>
		<path class="st0" d="M12.4,82.6V65.2h10.1v2.7h-7.1V72h5.8v2.7h-5.8v5.2h7.9v2.7L12.4,82.6z"/>
		<path class="st0" d="M33.6,71.6v11h-2.9V64.7l12.9,11.9V65h2.9v18.1L33.6,71.6z"/>
		<path class="st0" d="M64.5,75.9v-2.5h7.6C72,80.2,67.9,83,63.6,83c-5.3,0-9.4-4-9.4-9.1s4.1-9.2,9.4-9.2c4.2,0,6.6,2.2,6.7,2.3    l-1.6,2.2c-0.1-0.2-2-1.9-5.2-1.9c-3.8,0-6.3,2.9-6.3,6.5c0,3.1,2.4,6.4,6.3,6.4c3,0,5.2-1.9,5.4-4.4L64.5,75.9L64.5,75.9z"/>
		<path class="st0" d="M79.3,82.6V65.2h2.9v17.4H79.3z"/>
		<path class="st0" d="M93.6,71.6v11h-2.9V64.7l12.9,11.9V65h2.9v18.1L93.6,71.6z"/>
		<path class="st0" d="M115.1,82.6V65.2h10.1v2.7h-7.1V72h5.8v2.7h-5.8v5.2h7.9v2.7L115.1,82.6z"/>
		<path class="st0" d="M133.4,82.6V65.2h10.1v2.7h-7.1V72h5.8v2.7h-5.8v5.2h7.9v2.7C144.3,82.6,133.4,82.6,133.4,82.6z"/>
		<path class="st0" d="M161,82.6l-5.9-6.5h-0.5v6.5h-2.9V65.2h3.7c3.2,0,7.4,0.8,7.4,5.4c0,2.4-1.9,4.7-4.6,5.2l6.9,6.9L161,82.6    L161,82.6z M155.8,73.6c2.6,0,3.9-1.3,3.9-2.9c0-1.9-1.2-2.9-3.7-2.9h-1.4v5.7h1.2V73.6z"/>
		<path class="st0" d="M170.8,82.6V65.2h2.9v17.4H170.8z"/>
		<path class="st0" d="M185.2,71.6v11h-2.9V64.7l12.9,11.9V65h2.9v18.1L185.2,71.6z"/>
		<path class="st0" d="M216.1,75.9v-2.5h7.6c-0.1,6.8-4.2,9.6-8.5,9.6c-5.3,0-9.4-4-9.4-9.1s4.1-9.2,9.4-9.2c4.2,0,6.6,2.2,6.7,2.3    l-1.5,2.2c-0.1-0.2-2-1.9-5.2-1.9c-3.8,0-6.3,2.9-6.3,6.5c0,3.1,2.4,6.4,6.3,6.4c3,0,5.2-1.9,5.4-4.4h-4.5V75.9z"/>
	</g>
	<path class="st0" d="M41.2,43.3c0.8,0,1.5,0.2,2.2,0.5V20h-5.3v24.3C39,43.8,40,43.3,41.2,43.3z"/>
	<path class="st15" d="M43.9,46.5c-0.7-0.7-1.6-1.2-2.7-1.2c-2,0-3.6,1.6-3.6,3.6s1.6,3.6,3.6,3.6c1.1,0,2-0.5,2.7-1.2h12.6v-4.8   L43.9,46.5z M41.2,50c-0.6,0-1.1-0.5-1.1-1.1s0.5-1.1,1.1-1.1s1.1,0.5,1.1,1.1C42.2,49.5,41.8,50,41.2,50z"/>
	<path class="st15" d="M234.1,32c-2-0.5-3.9,0.8-4.4,2.7c-0.2,1.1,0,2.1,0.6,2.9l-2.2,9.6l4.7,1.1l2.2-9.6c0.9-0.5,1.6-1.3,1.8-2.4   C237.3,34.5,236.1,32.5,234.1,32z M234.3,35.8c-0.1,0.6-0.7,0.9-1.3,0.8c-0.6-0.1-0.9-0.7-0.8-1.3c0.1-0.6,0.7-0.9,1.3-0.8   C234.1,34.7,234.5,35.2,234.3,35.8z"/>
	<path class="st15" d="M92.6,32.3c-0.7-0.8-1.6-1.2-2.7-1.2c-2,0-3.6,1.6-3.6,3.6s1.6,3.6,3.6,3.6c1.1,0,2.1-0.5,2.7-1.2h10.1v-4.8   H92.6z M89.9,35.8c-0.6,0-1.1-0.5-1.1-1.1c0-0.6,0.5-1.1,1.1-1.1S91,34,91,34.6C91,35.3,90.5,35.8,89.9,35.8z"/>
	<path class="st15" d="M145.1,18.8c-2,0-3.6,1.6-3.6,3.6c0,1.1,0.5,2,1.2,2.7v26.2h4.8V25.1c0.7-0.7,1.2-1.6,1.2-2.7   C148.8,20.4,147.1,18.8,145.1,18.8z M145.1,23.5c-0.6,0-1.1-0.5-1.1-1.1c0-0.6,0.5-1.1,1.1-1.1s1.1,0.5,1.1,1.1   C146.2,23,145.7,23.5,145.1,23.5z"/>
	<circle class="st15" cx="271.7" cy="44.8" r="2.7"/>
	<path class="st15" d="M287.6,82.7H256c-0.5,0-0.8-0.4-0.8-0.8l0,0c0-0.5,0.4-0.8,0.8-0.8h31.6c0.5,0,0.8,0.4,0.8,0.8l0,0   C288.4,82.3,288.1,82.7,287.6,82.7z"/>
	<path class="st15" d="M284.8,79.3h-26.1c-0.5,0-0.8-0.4-0.8-0.8l0,0c0-0.5,0.4-0.8,0.8-0.8h26.1c0.5,0,0.8,0.4,0.8,0.8l0,0   C285.7,78.9,285.3,79.3,284.8,79.3z"/>
	<path class="st0" d="M89.9,29.1c0.8,0,1.5,0.2,2.2,0.4v-4.7h13.2V20H87.8v9.5C88.5,29.3,89.2,29.1,89.9,29.1z"/>
	<path class="st0" d="M92.4,46.5v-6.8c-0.7,0.4-1.6,0.6-2.5,0.6c-0.7,0-1.5-0.2-2.1-0.4v11.3h18.7v-4.8L92.4,46.5L92.4,46.5z"/>
	<g>
		<path class="st0" d="M139.6,22.5c0-0.9,0.2-1.7,0.5-2.4h-6.9v4.8h6.9C139.8,24.1,139.6,23.3,139.6,22.5z"/>
		<path class="st0" d="M150.1,20c0.3,0.7,0.5,1.5,0.5,2.4c0,0.9-0.2,1.7-0.6,2.4h6.9V20H150.1z"/>
	</g>
	<path class="st15" d="M280.7,75.9L276,48.8c1.9-2,2.1-5.1,0.5-7.4c-1.6-2.2-4.4-3-6.8-2.2l-10.1-5.4l0.9-1.5l-2.1-1.3l-0.2,0.3   l-3-5.4l-3.1-0.1c0.1,0.2,0.1,0.5,0.2,0.7c0.1,0.4,0.1,0.7,0.1,1.1l1.5,0.4l1.3,3.3l-2.5,4.2l-3.8,0.9l-4.3-4.6l-0.6,0.4l3.6,6.5   l6.2,0.1l-0.2,0.3l2.1,1.3l0.7-1.2l9.4,6c0.1,1.1,0.4,2.1,1.1,3c0.2,0.2,0.4,0.5,0.6,0.7l-4.6,27H280.7z M269.2,41.3   c1.9-1.4,4.6-0.9,6,1s0.9,4.6-1,6s-4.6,0.9-6-1C266.9,45.3,267.3,42.8,269.2,41.3z"/>
	<path class="st0" d="M252.4,27.8c0-0.4-0.1-0.8-0.1-1.1c0-0.2-0.1-0.5-0.2-0.7c0-0.1-0.1-0.2-0.1-0.3c-0.3-0.8-0.7-1.6-1.2-2.3   c-0.7-1-1.7-1.8-2.8-2.5c-0.2-0.1-0.3-0.2-0.5-0.3c-1.7-1-3.7-1.7-6-2.2l-6.6-1.5l-3,13.4c0.8-0.2,1.8-0.3,2.7,0   c1,0.2,1.8,0.7,2.5,1.3l2-8.8l2.9,0.7c2.9,0.7,4.5,2.2,4.9,4.2c0,0.2,0,0.3,0.1,0.5c0,0.5,0,1.1-0.2,1.7c-0.2,0.8-0.5,1.5-0.9,2.1   l3.4,3.6l1.1-0.3c0.8-1.2,1.4-2.6,1.8-4.2C252.4,29.8,252.5,28.8,252.4,27.8z"/>
	<path class="st0" d="M238.7,33.8h-0.2c0.3,1,0.4,2,0.2,3.1c-0.1,0.6-0.4,1.2-0.7,1.7c3.3,0.7,6,0.6,8.2-0.2l-2.6-4.7   C242.3,34.1,240.6,34.2,238.7,33.8z"/>
</g>
</svg>